<svg width="72" height="81" viewBox="0 0 72 81" fill="none" xmlns="http://www.w3.org/2000/svg">
<path d="M68.0379 33.3357C65.2204 32.8228 62.3624 32.571 59.4995 32.5837C57.8545 32.5837 56.2487 32.5837 54.6429 32.9003C52.6446 30.2034 50.0926 27.9753 47.162 26.3691C49.682 23.5934 51.0797 19.9632 51.0787 16.1962C51.0787 12.1439 49.4859 8.25756 46.6507 5.39216C43.8154 2.52676 39.97 0.916992 35.9604 0.916992C31.9507 0.916992 28.1053 2.52676 25.2701 5.39216C22.4349 8.25756 20.842 12.1439 20.842 16.1962C20.8411 19.9632 22.2388 23.5934 24.7587 26.3691C21.8456 27.9837 19.2977 30.1947 17.2779 32.8607C15.7504 32.5837 14.1445 32.5837 12.4995 32.5837C9.63431 32.5971 6.7763 32.8754 3.96121 33.4149C3.04879 33.5835 2.2252 34.0739 1.63706 34.7988C1.04892 35.5237 0.734417 36.436 0.749545 37.3732V70.0295C0.74861 70.611 0.874467 71.1856 1.11817 71.7124C1.36187 72.2392 1.71742 72.7052 2.15954 73.0774C2.59888 73.4518 3.11435 73.7239 3.66939 73.8744C4.22444 74.0249 4.80545 74.0501 5.37121 73.9482C7.71593 73.438 10.1021 73.1465 12.4995 73.0774C20.0862 73.0713 27.5079 75.3147 33.8454 79.5295L34.3545 79.7274C34.8744 79.9543 35.4334 80.0753 35.9995 80.0837C36.3732 80.0769 36.7433 80.01 37.0962 79.8857H37.3704L37.8795 79.6878C44.2774 75.3648 51.8035 73.0636 59.4995 73.0774C61.8922 73.0944 64.2783 73.3329 66.6279 73.7899C67.1936 73.8918 67.7747 73.8666 68.3297 73.7161C68.8847 73.5656 69.4002 73.2935 69.8395 72.9191C70.2817 72.5469 70.6372 72.0808 70.8809 71.5541C71.1246 71.0273 71.2505 70.4527 71.2495 69.8712V37.2149C71.2462 36.2912 70.9233 35.3977 70.3367 34.6893C69.7502 33.9808 68.937 33.502 68.0379 33.3357ZM35.9995 8.83366C37.8343 8.9699 39.5501 9.80264 40.8024 11.1647C42.0547 12.5267 42.7507 14.3171 42.7507 16.1764C42.7507 18.0356 42.0547 19.8261 40.8024 21.1881C39.5501 22.5501 37.8343 23.3828 35.9995 23.5191C34.1648 23.3828 32.449 22.5501 31.1967 21.1881C29.9444 19.8261 29.2483 18.0356 29.2483 16.1764C29.2483 14.3171 29.9444 12.5267 31.1967 11.1647C32.449 9.80264 34.1648 8.9699 35.9995 8.83366ZM32.0829 69.5149C25.945 66.6448 19.2626 65.159 12.4995 65.1607C11.207 65.1607 9.91455 65.1607 8.58288 65.3587V40.5003C11.8672 40.1276 15.1858 40.1942 18.4529 40.6982H18.8837C23.5508 41.5651 28.0232 43.2819 32.0829 45.7649V69.5149ZM35.9995 38.917C34.2567 37.9039 32.4513 37.0048 30.5945 36.2253H30.3595C29.067 35.7107 27.7745 35.1962 26.4429 34.8003C29.1623 32.6128 32.5242 31.4014 35.9995 31.3566C39.4657 31.3788 42.8267 32.5621 45.5562 34.7212C42.231 35.7694 39.027 37.1761 35.9995 38.917ZM63.4162 65.3587C55.3739 64.542 47.2617 65.9084 39.9162 69.317V45.567C43.9848 43.151 48.4593 41.5139 53.1154 40.7378H53.8987C57.0477 40.2427 60.2469 40.1629 63.4162 40.5003V65.3587Z" fill="#3A6D8C"/>
</svg>
