<svg width="70" height="64" viewBox="0 0 70 64" fill="none" xmlns="http://www.w3.org/2000/svg">
<path d="M66.8182 31.8182V57.2727C66.8182 58.9605 66.1477 60.5791 64.9543 61.7725C63.7609 62.9659 62.1423 63.6364 60.4545 63.6364H9.54545C7.85771 63.6364 6.2391 62.9659 5.04568 61.7725C3.85227 60.5791 3.18182 58.9605 3.18182 57.2727V31.8182C2.33795 31.8182 1.52864 31.483 0.931933 30.8862C0.335226 30.2895 0 29.4802 0 28.6364V19.0909C0 17.4032 0.670453 15.7846 1.86387 14.5911C3.05728 13.3977 4.6759 12.7273 6.36364 12.7273H16.45C16.0904 11.7051 15.9075 10.6291 15.9091 9.54545C15.9091 7.01384 16.9148 4.58592 18.7049 2.7958C20.495 1.00568 22.9229 0 25.4545 0C28.6364 0 31.4364 1.59091 33.1864 3.94545V3.91364L35 6.36364L36.8136 3.91364V3.94545C38.5636 1.59091 41.3636 0 44.5455 0C47.0771 0 49.505 1.00568 51.2951 2.7958C53.0852 4.58592 54.0909 7.01384 54.0909 9.54545C54.0925 10.6291 53.9096 11.7051 53.55 12.7273H63.6364C65.3241 12.7273 66.9427 13.3977 68.1361 14.5911C69.3295 15.7846 70 17.4032 70 19.0909V28.6364C70 29.4802 69.6648 30.2895 69.0681 30.8862C68.4714 31.483 67.6621 31.8182 66.8182 31.8182ZM9.54545 57.2727H31.8182V31.8182H9.54545V57.2727ZM60.4545 57.2727V31.8182H38.1818V57.2727H60.4545ZM25.4545 6.36364C24.6107 6.36364 23.8014 6.69886 23.2047 7.29557C22.608 7.89228 22.2727 8.70158 22.2727 9.54545C22.2727 10.3893 22.608 11.1986 23.2047 11.7953C23.8014 12.392 24.6107 12.7273 25.4545 12.7273C26.2984 12.7273 27.1077 12.392 27.7044 11.7953C28.3011 11.1986 28.6364 10.3893 28.6364 9.54545C28.6364 8.70158 28.3011 7.89228 27.7044 7.29557C27.1077 6.69886 26.2984 6.36364 25.4545 6.36364ZM44.5455 6.36364C43.7016 6.36364 42.8923 6.69886 42.2956 7.29557C41.6989 7.89228 41.3636 8.70158 41.3636 9.54545C41.3636 10.3893 41.6989 11.1986 42.2956 11.7953C42.8923 12.392 43.7016 12.7273 44.5455 12.7273C45.3893 12.7273 46.1986 12.392 46.7953 11.7953C47.392 11.1986 47.7273 10.3893 47.7273 9.54545C47.7273 8.70158 47.392 7.89228 46.7953 7.29557C46.1986 6.69886 45.3893 6.36364 44.5455 6.36364ZM6.36364 19.0909V25.4545H31.8182V19.0909H6.36364ZM38.1818 19.0909V25.4545H63.6364V19.0909H38.1818Z" fill="#3A6D8C"/>
</svg>
