<svg width="71" height="65" viewBox="0 0 71 65" fill="none" xmlns="http://www.w3.org/2000/svg">
<mask id="path-1-inside-1_174_1662" fill="white">
<path d="M3.41634 3.62533V0.416992C2.56544 0.416992 1.74939 0.755012 1.14771 1.35669C0.546028 1.95837 0.208008 2.77442 0.208008 3.62533H3.41634ZM38.708 3.62533H41.9163C41.9163 2.77442 41.5783 1.95837 40.9766 1.35669C40.375 0.755012 39.5589 0.416992 38.708 0.416992V3.62533ZM38.708 22.8753V19.667C37.8571 19.667 37.041 20.005 36.4394 20.6067C35.8377 21.2084 35.4997 22.0244 35.4997 22.8753H38.708ZM3.41634 6.83366H38.708V0.416992H3.41634V6.83366ZM35.4997 3.62533V54.9587H41.9163V3.62533H35.4997ZM6.62467 48.542V3.62533H0.208008V48.542H6.62467ZM38.708 26.0837H54.7497V19.667H38.708V26.0837ZM64.3747 35.7087V48.542H70.7913V35.7087H64.3747ZM41.9163 54.9587V22.8753H35.4997V54.9587H41.9163ZM57.018 57.227C56.4163 57.8284 55.6004 58.1663 54.7497 58.1663C53.8989 58.1663 53.083 57.8284 52.4814 57.227L47.9448 61.7635C49.7497 63.5679 52.1975 64.5816 54.7497 64.5816C57.3019 64.5816 59.7496 63.5679 61.5545 61.7635L57.018 57.227ZM52.4814 52.6904C53.083 52.0889 53.8989 51.751 54.7497 51.751C55.6004 51.751 56.4163 52.0889 57.018 52.6904L61.5545 48.1538C59.7496 46.3494 57.3019 45.3357 54.7497 45.3357C52.1975 45.3357 49.7497 46.3494 47.9448 48.1538L52.4814 52.6904ZM18.518 57.227C17.9163 57.8284 17.1004 58.1663 16.2497 58.1663C15.3989 58.1663 14.583 57.8284 13.9814 57.227L9.4448 61.7635C11.2498 63.5679 13.6975 64.5816 16.2497 64.5816C18.8019 64.5816 21.2496 63.5679 23.0545 61.7635L18.518 57.227ZM13.9814 52.6904C14.583 52.0889 15.3989 51.751 16.2497 51.751C17.1004 51.751 17.9163 52.0889 18.518 52.6904L23.0545 48.1538C21.2496 46.3494 18.8019 45.3357 16.2497 45.3357C13.6975 45.3357 11.2498 46.3494 9.4448 48.1538L13.9814 52.6904ZM57.018 52.6904C57.6468 53.316 57.958 54.1341 57.958 54.9587H64.3747C64.3747 52.5011 63.4346 50.0307 61.5545 48.1538L57.018 52.6904ZM57.958 54.9587C57.9578 55.8095 57.6197 56.6254 57.018 57.227L61.5545 61.7635C63.3597 59.9589 64.3741 57.5112 64.3747 54.9587H57.958ZM48.333 51.7503H38.708V58.167H48.333V51.7503ZM52.4814 57.227C51.8797 56.6254 51.5415 55.8095 51.5413 54.9587H45.1247C45.1247 57.4162 46.0647 59.8867 47.9448 61.7635L52.4814 57.227ZM51.5413 54.9587C51.5415 54.1078 51.8797 53.2919 52.4814 52.6904L47.9448 48.1538C46.1396 49.9584 45.1252 52.4062 45.1247 54.9587H51.5413ZM13.9814 57.227C13.3797 56.6254 13.0415 55.8095 13.0413 54.9587H6.62467C6.62467 57.4162 7.56472 59.8867 9.4448 61.7635L13.9814 57.227ZM13.0413 54.9587C13.0415 54.1078 13.3797 53.2919 13.9814 52.6904L9.4448 48.1538C7.63964 49.9584 6.62522 52.4062 6.62467 54.9587H13.0413ZM38.708 51.7503H22.6663V58.167H38.708V51.7503ZM18.518 52.6904C19.1468 53.316 19.458 54.1341 19.458 54.9587H25.8747C25.8747 52.5011 24.9346 50.0307 23.0545 48.1538L18.518 52.6904ZM19.458 54.9587C19.4578 55.8095 19.1197 56.6254 18.518 57.227L23.0545 61.7635C24.8597 59.9589 25.8741 57.5112 25.8747 54.9587H19.458ZM64.3747 48.542C64.3747 49.3929 64.0367 50.209 63.435 50.8106C62.8333 51.4123 62.0172 51.7503 61.1663 51.7503V58.167C63.719 58.167 66.1672 57.1529 67.9722 55.3479C69.7773 53.5429 70.7913 51.0947 70.7913 48.542H64.3747ZM54.7497 26.0837C57.3024 26.0837 59.7505 27.0977 61.5556 28.9028C63.3606 30.7078 64.3747 33.156 64.3747 35.7087H70.7913C70.7913 33.602 70.3764 31.516 69.5702 29.5698C68.7641 27.6235 67.5824 25.8551 66.0928 24.3655C64.6032 22.8759 62.8348 21.6943 60.8885 20.8881C58.9423 20.0819 56.8563 19.667 54.7497 19.667V26.0837ZM0.208008 48.542C0.208008 51.0947 1.22207 53.5429 3.0271 55.3479C4.83214 57.1529 7.2803 58.167 9.83301 58.167V51.7503C8.9821 51.7503 8.16605 51.4123 7.56437 50.8106C6.96269 50.209 6.62467 49.3929 6.62467 48.542H0.208008Z"/>
</mask>
<path d="M3.41634 3.62533V0.416992C2.56544 0.416992 1.74939 0.755012 1.14771 1.35669C0.546028 1.95837 0.208008 2.77442 0.208008 3.62533H3.41634ZM38.708 3.62533H41.9163C41.9163 2.77442 41.5783 1.95837 40.9766 1.35669C40.375 0.755012 39.5589 0.416992 38.708 0.416992V3.62533ZM38.708 22.8753V19.667C37.8571 19.667 37.041 20.005 36.4394 20.6067C35.8377 21.2084 35.4997 22.0244 35.4997 22.8753H38.708ZM3.41634 6.83366H38.708V0.416992H3.41634V6.83366ZM35.4997 3.62533V54.9587H41.9163V3.62533H35.4997ZM6.62467 48.542V3.62533H0.208008V48.542H6.62467ZM38.708 26.0837H54.7497V19.667H38.708V26.0837ZM64.3747 35.7087V48.542H70.7913V35.7087H64.3747ZM41.9163 54.9587V22.8753H35.4997V54.9587H41.9163ZM57.018 57.227C56.4163 57.8284 55.6004 58.1663 54.7497 58.1663C53.8989 58.1663 53.083 57.8284 52.4814 57.227L47.9448 61.7635C49.7497 63.5679 52.1975 64.5816 54.7497 64.5816C57.3019 64.5816 59.7496 63.5679 61.5545 61.7635L57.018 57.227ZM52.4814 52.6904C53.083 52.0889 53.8989 51.751 54.7497 51.751C55.6004 51.751 56.4163 52.0889 57.018 52.6904L61.5545 48.1538C59.7496 46.3494 57.3019 45.3357 54.7497 45.3357C52.1975 45.3357 49.7497 46.3494 47.9448 48.1538L52.4814 52.6904ZM18.518 57.227C17.9163 57.8284 17.1004 58.1663 16.2497 58.1663C15.3989 58.1663 14.583 57.8284 13.9814 57.227L9.4448 61.7635C11.2498 63.5679 13.6975 64.5816 16.2497 64.5816C18.8019 64.5816 21.2496 63.5679 23.0545 61.7635L18.518 57.227ZM13.9814 52.6904C14.583 52.0889 15.3989 51.751 16.2497 51.751C17.1004 51.751 17.9163 52.0889 18.518 52.6904L23.0545 48.1538C21.2496 46.3494 18.8019 45.3357 16.2497 45.3357C13.6975 45.3357 11.2498 46.3494 9.4448 48.1538L13.9814 52.6904ZM57.018 52.6904C57.6468 53.316 57.958 54.1341 57.958 54.9587H64.3747C64.3747 52.5011 63.4346 50.0307 61.5545 48.1538L57.018 52.6904ZM57.958 54.9587C57.9578 55.8095 57.6197 56.6254 57.018 57.227L61.5545 61.7635C63.3597 59.9589 64.3741 57.5112 64.3747 54.9587H57.958ZM48.333 51.7503H38.708V58.167H48.333V51.7503ZM52.4814 57.227C51.8797 56.6254 51.5415 55.8095 51.5413 54.9587H45.1247C45.1247 57.4162 46.0647 59.8867 47.9448 61.7635L52.4814 57.227ZM51.5413 54.9587C51.5415 54.1078 51.8797 53.2919 52.4814 52.6904L47.9448 48.1538C46.1396 49.9584 45.1252 52.4062 45.1247 54.9587H51.5413ZM13.9814 57.227C13.3797 56.6254 13.0415 55.8095 13.0413 54.9587H6.62467C6.62467 57.4162 7.56472 59.8867 9.4448 61.7635L13.9814 57.227ZM13.0413 54.9587C13.0415 54.1078 13.3797 53.2919 13.9814 52.6904L9.4448 48.1538C7.63964 49.9584 6.62522 52.4062 6.62467 54.9587H13.0413ZM38.708 51.7503H22.6663V58.167H38.708V51.7503ZM18.518 52.6904C19.1468 53.316 19.458 54.1341 19.458 54.9587H25.8747C25.8747 52.5011 24.9346 50.0307 23.0545 48.1538L18.518 52.6904ZM19.458 54.9587C19.4578 55.8095 19.1197 56.6254 18.518 57.227L23.0545 61.7635C24.8597 59.9589 25.8741 57.5112 25.8747 54.9587H19.458ZM64.3747 48.542C64.3747 49.3929 64.0367 50.209 63.435 50.8106C62.8333 51.4123 62.0172 51.7503 61.1663 51.7503V58.167C63.719 58.167 66.1672 57.1529 67.9722 55.3479C69.7773 53.5429 70.7913 51.0947 70.7913 48.542H64.3747ZM54.7497 26.0837C57.3024 26.0837 59.7505 27.0977 61.5556 28.9028C63.3606 30.7078 64.3747 33.156 64.3747 35.7087H70.7913C70.7913 33.602 70.3764 31.516 69.5702 29.5698C68.7641 27.6235 67.5824 25.8551 66.0928 24.3655C64.6032 22.8759 62.8348 21.6943 60.8885 20.8881C58.9423 20.0819 56.8563 19.667 54.7497 19.667V26.0837ZM0.208008 48.542C0.208008 51.0947 1.22207 53.5429 3.0271 55.3479C4.83214 57.1529 7.2803 58.167 9.83301 58.167V51.7503C8.9821 51.7503 8.16605 51.4123 7.56437 50.8106C6.96269 50.209 6.62467 49.3929 6.62467 48.542H0.208008Z" fill="#3A6D8C"/>
<path d="M35.4997 55.4587H41.9163V54.4587H35.4997V55.4587ZM0.208008 49.042H6.62467V48.042H0.208008V49.042ZM55.2497 26.0837V19.667H54.2497V26.0837H55.2497ZM64.3747 49.042H70.7913V48.042H64.3747V49.042ZM70.7913 35.2087H64.3747V36.2087H70.7913V35.2087ZM52.1278 56.8734L47.5912 61.41L48.2983 62.1171L52.8349 57.5805L52.1278 56.8734ZM61.9081 61.41L57.3715 56.8734L56.6644 57.5805L61.201 62.1171L61.9081 61.41ZM57.3715 53.0439L61.9081 48.5073L61.201 47.8002L56.6644 52.3368L57.3715 53.0439ZM47.5912 48.5073L52.1278 53.0439L52.8349 52.3368L48.2983 47.8002L47.5912 48.5073ZM13.6278 56.8734L9.09124 61.41L9.79835 62.1171L14.3349 57.5805L13.6278 56.8734ZM23.4081 61.41L18.8715 56.8734L18.1644 57.5805L22.701 62.1171L23.4081 61.41ZM18.8715 53.0439L23.4081 48.5073L22.701 47.8002L18.1644 52.3368L18.8715 53.0439ZM9.09124 48.5073L13.6278 53.0439L14.3349 52.3368L9.79835 47.8002L9.09124 48.5073ZM57.958 55.4587H64.3747V54.4587H57.958V55.4587ZM38.208 51.7503V58.167H39.208V51.7503H38.208ZM51.5413 54.4587H45.1247V55.4587H51.5413V54.4587ZM13.0413 54.4587H6.62467V55.4587H13.0413V54.4587ZM19.458 55.4587H25.8747V54.4587H19.458V55.4587ZM3.41634 3.62533V4.62533H4.41634V3.62533H3.41634ZM3.41634 0.416992V-0.583008V0.416992ZM0.208008 3.62533H-0.791992H0.208008ZM38.708 3.62533H37.708V4.62533H38.708V3.62533ZM38.708 0.416992V-0.583008V0.416992ZM38.708 22.8753V23.8753H39.708V22.8753H38.708ZM3.41634 6.83366H2.41634V7.83366H3.41634V6.83366ZM38.708 6.83366V7.83366H39.708V6.83366H38.708ZM35.4997 3.62533V2.62533H34.4997V3.62533H35.4997ZM6.62467 48.542H5.62467H6.62467ZM6.62467 3.62533H7.62467V2.62533H6.62467V3.62533ZM0.208008 48.542H-0.791992H0.208008ZM38.708 26.0837H37.708V27.0837H38.708V26.0837ZM54.7497 19.667V18.667V19.667ZM64.3747 35.7087H65.3747H64.3747ZM70.7913 48.542H71.7913H70.7913ZM70.7913 35.7087H69.7913H70.7913ZM41.9163 22.8753H42.9163V21.8753H41.9163V22.8753ZM57.018 57.227L56.311 56.5197L57.018 57.227ZM52.4814 57.227L53.1884 56.5197L52.4814 57.227ZM47.9448 61.7635L48.6518 61.0563L48.6513 61.0558L47.9448 61.7635ZM61.5545 61.7635L60.8475 61.0563L61.5545 61.7635ZM52.4814 52.6904L53.1884 53.3976L52.4814 52.6904ZM57.018 52.6904L56.311 53.3976L56.3127 53.3993L57.018 52.6904ZM61.5545 48.1538L60.8475 48.861L60.848 48.8615L61.5545 48.1538ZM47.9448 48.1538L48.6518 48.861L47.9448 48.1538ZM18.518 57.227L17.811 56.5197L18.518 57.227ZM13.9814 57.227L14.6884 56.5197L13.9814 57.227ZM9.4448 61.7635L10.1518 61.0563L10.1513 61.0558L9.4448 61.7635ZM23.0545 61.7635L22.3475 61.0563L23.0545 61.7635ZM13.9814 52.6904L14.6884 53.3976L13.9814 52.6904ZM18.518 52.6904L17.811 53.3976L17.8127 53.3993L18.518 52.6904ZM23.0545 48.1538L22.3475 48.861L22.348 48.8615L23.0545 48.1538ZM9.4448 48.1538L10.1518 48.861L9.4448 48.1538ZM57.958 54.9587L58.958 54.9589V54.9587H57.958ZM64.3747 54.9587L65.3747 54.9589V54.9587H64.3747ZM48.333 51.7503H49.333V50.7503H48.333V51.7503ZM48.333 58.167V59.167H49.333V58.167H48.333ZM51.5413 54.9587L50.5413 54.9584V54.9589L51.5413 54.9587ZM45.1247 54.9587L44.1247 54.9584V54.9587H45.1247ZM13.0413 54.9587L12.0413 54.9584V54.9589L13.0413 54.9587ZM6.62467 54.9587L5.62467 54.9584V54.9587H6.62467ZM22.6663 51.7503V50.7503H21.6663V51.7503H22.6663ZM22.6663 58.167H21.6663V59.167H22.6663V58.167ZM19.458 54.9587L20.458 54.9589V54.9587H19.458ZM25.8747 54.9587L26.8747 54.9589V54.9587H25.8747ZM61.1663 51.7503V50.7503H60.1663V51.7503H61.1663ZM61.1663 58.167H60.1663V59.167H61.1663V58.167ZM9.83301 58.167V59.167H10.833V58.167H9.83301ZM9.83301 51.7503H10.833V50.7503H9.83301V51.7503ZM4.41634 3.62533V0.416992H2.41634V3.62533H4.41634ZM3.41634 -0.583008C2.30022 -0.583008 1.22982 -0.139631 0.4406 0.649584L1.85481 2.0638C2.26896 1.64966 2.83065 1.41699 3.41634 1.41699V-0.583008ZM0.4406 0.649584C-0.348616 1.4388 -0.791992 2.50921 -0.791992 3.62533H1.20801C1.20801 3.03964 1.44067 2.47794 1.85481 2.0638L0.4406 0.649584ZM0.208008 4.62533H3.41634V2.62533H0.208008V4.62533ZM38.708 4.62533H41.9163V2.62533H38.708V4.62533ZM42.9163 3.62533C42.9163 2.50921 42.473 1.4388 41.6837 0.649584L40.2695 2.0638C40.6837 2.47794 40.9163 3.03964 40.9163 3.62533H42.9163ZM41.6837 0.649584C40.8945 -0.139631 39.8241 -0.583008 38.708 -0.583008V1.41699C39.2937 1.41699 39.8554 1.64965 40.2695 2.0638L41.6837 0.649584ZM37.708 0.416992V3.62533H39.708V0.416992H37.708ZM39.708 22.8753V19.667H37.708V22.8753H39.708ZM38.708 18.667C37.5919 18.667 36.5215 19.1104 35.7323 19.8996L37.1465 21.3138C37.5606 20.8997 38.1223 20.667 38.708 20.667V18.667ZM35.7323 19.8996C34.9431 20.6888 34.4997 21.7592 34.4997 22.8753H36.4997C36.4997 22.2896 36.7323 21.7279 37.1465 21.3138L35.7323 19.8996ZM35.4997 23.8753H38.708V21.8753H35.4997V23.8753ZM3.41634 7.83366H38.708V5.83366H3.41634V7.83366ZM39.708 6.83366V0.416992H37.708V6.83366H39.708ZM38.708 -0.583008H3.41634V1.41699H38.708V-0.583008ZM2.41634 0.416992V6.83366H4.41634V0.416992H2.41634ZM34.4997 3.62533V54.9587H36.4997V3.62533H34.4997ZM42.9163 54.9587V3.62533H40.9163V54.9587H42.9163ZM41.9163 2.62533H35.4997V4.62533H41.9163V2.62533ZM7.62467 48.542V3.62533H5.62467V48.542H7.62467ZM6.62467 2.62533H0.208008V4.62533H6.62467V2.62533ZM-0.791992 3.62533V48.542H1.20801V3.62533H-0.791992ZM38.708 27.0837H54.7497V25.0837H38.708V27.0837ZM54.7497 18.667H38.708V20.667H54.7497V18.667ZM37.708 19.667V26.0837H39.708V19.667H37.708ZM63.3747 35.7087V48.542H65.3747V35.7087H63.3747ZM71.7913 48.542V35.7087H69.7913V48.542H71.7913ZM42.9163 54.9587V22.8753H40.9163V54.9587H42.9163ZM41.9163 21.8753H35.4997V23.8753H41.9163V21.8753ZM34.4997 22.8753V54.9587H36.4997V22.8753H34.4997ZM56.311 56.5197C55.8968 56.9337 55.3352 57.1663 54.7497 57.1663V59.1663C55.8656 59.1663 56.9358 58.7231 57.725 57.9342L56.311 56.5197ZM54.7497 57.1663C54.1641 57.1663 53.6025 56.9337 53.1884 56.5197L51.7744 57.9342C52.5636 58.7231 53.6338 59.1663 54.7497 59.1663V57.1663ZM47.2378 62.4708C49.2303 64.4626 51.9323 65.5816 54.7497 65.5816V63.5816C52.4626 63.5816 50.2692 62.6733 48.6518 61.0563L47.2378 62.4708ZM54.7497 65.5816C57.567 65.5816 60.2691 64.4626 62.2615 62.4708L60.8475 61.0563C59.2301 62.6733 57.0367 63.5816 54.7497 63.5816V65.5816ZM53.1884 53.3976C53.6025 52.9836 54.1641 52.751 54.7497 52.751V50.751C53.6338 50.751 52.5636 51.1942 51.7744 51.9832L53.1884 53.3976ZM54.7497 52.751C55.3352 52.751 55.8968 52.9836 56.311 53.3976L57.725 51.9832C56.9358 51.1942 55.8656 50.751 54.7497 50.751V52.751ZM62.2615 47.4466C60.2691 45.4547 57.567 44.3357 54.7497 44.3357V46.3357C57.0367 46.3357 59.2301 47.2441 60.8475 48.861L62.2615 47.4466ZM54.7497 44.3357C51.9323 44.3357 49.2303 45.4547 47.2378 47.4466L48.6518 48.861C50.2692 47.2441 52.4626 46.3357 54.7497 46.3357V44.3357ZM17.811 56.5197C17.3968 56.9337 16.8352 57.1663 16.2497 57.1663V59.1663C17.3656 59.1663 18.4358 58.7231 19.225 57.9342L17.811 56.5197ZM16.2497 57.1663C15.6641 57.1663 15.1025 56.9337 14.6884 56.5197L13.2744 57.9342C14.0636 58.7231 15.1338 59.1663 16.2497 59.1663V57.1663ZM8.7378 62.4708C10.7303 64.4626 13.4323 65.5816 16.2497 65.5816V63.5816C13.9626 63.5816 11.7692 62.6733 10.1518 61.0563L8.7378 62.4708ZM16.2497 65.5816C19.067 65.5816 21.7691 64.4626 23.7615 62.4708L22.3475 61.0563C20.7301 62.6733 18.5367 63.5816 16.2497 63.5816V65.5816ZM14.6884 53.3976C15.1025 52.9836 15.6641 52.751 16.2497 52.751V50.751C15.1338 50.751 14.0636 51.1942 13.2744 51.9832L14.6884 53.3976ZM16.2497 52.751C16.8352 52.751 17.3968 52.9836 17.811 53.3976L19.225 51.9832C18.4358 51.1942 17.3656 50.751 16.2497 50.751V52.751ZM23.7615 47.4466C21.7691 45.4547 19.067 44.3357 16.2497 44.3357V46.3357C18.5367 46.3357 20.7301 47.2441 22.3475 48.861L23.7615 47.4466ZM16.2497 44.3357C13.4323 44.3357 10.7303 45.4547 8.7378 47.4466L10.1518 48.861C11.7692 47.2441 13.9626 46.3357 16.2497 46.3357V44.3357ZM56.3127 53.3993C56.7439 53.8283 56.958 54.3873 56.958 54.9587H58.958C58.958 53.8809 58.5497 52.8036 57.7233 51.9815L56.3127 53.3993ZM65.3747 54.9587C65.3747 52.2472 64.3371 49.5186 62.261 47.4461L60.848 48.8615C62.5322 50.5427 63.3747 52.755 63.3747 54.9587H65.3747ZM56.958 54.9584C56.9579 55.5441 56.7251 56.1057 56.311 56.5197L57.725 57.9342C58.5142 57.1451 58.9578 56.0749 58.958 54.9589L56.958 54.9584ZM62.2615 62.4708C64.2543 60.4786 65.3741 57.7766 65.3747 54.9589L63.3747 54.9584C63.3742 57.2458 62.4652 59.4392 60.8475 61.0563L62.2615 62.4708ZM48.333 50.7503H38.708V52.7503H48.333V50.7503ZM38.708 59.167H48.333V57.167H38.708V59.167ZM49.333 58.167V51.7503H47.333V58.167H49.333ZM53.1884 56.5197C52.7742 56.1057 52.5415 55.5441 52.5413 54.9584L50.5413 54.9589C50.5416 56.0749 50.9851 57.1451 51.7744 57.9342L53.1884 56.5197ZM44.1247 54.9587C44.1247 57.6701 45.1622 60.3987 47.2383 62.4712L48.6513 61.0558C46.9672 59.3746 46.1247 57.1624 46.1247 54.9587H44.1247ZM52.5413 54.9589C52.5415 54.3732 52.7742 53.8116 53.1884 53.3976L51.7744 51.9832C50.9851 52.7722 50.5416 53.8424 50.5413 54.9584L52.5413 54.9589ZM47.2378 47.4466C45.2451 49.4387 44.1253 52.1408 44.1247 54.9584L46.1247 54.9589C46.1252 52.6716 47.0342 50.4781 48.6518 48.861L47.2378 47.4466ZM14.6884 56.5197C14.2742 56.1057 14.0415 55.5441 14.0413 54.9584L12.0413 54.9589C12.0416 56.0749 12.4851 57.1451 13.2744 57.9342L14.6884 56.5197ZM5.62467 54.9587C5.62467 57.6701 6.66224 60.3987 8.7383 62.4712L10.1513 61.0558C8.46719 59.3746 7.62467 57.1624 7.62467 54.9587H5.62467ZM14.0413 54.9589C14.0415 54.3732 14.2742 53.8116 14.6884 53.3976L13.2744 51.9832C12.4851 52.7722 12.0416 53.8424 12.0413 54.9584L14.0413 54.9589ZM8.7378 47.4466C6.74509 49.4387 5.62528 52.1408 5.62467 54.9584L7.62467 54.9589C7.62516 52.6716 8.53419 50.4781 10.1518 48.861L8.7378 47.4466ZM38.708 50.7503H22.6663V52.7503H38.708V50.7503ZM21.6663 51.7503V58.167H23.6663V51.7503H21.6663ZM22.6663 59.167H38.708V57.167H22.6663V59.167ZM17.8127 53.3993C18.2439 53.8283 18.458 54.3874 18.458 54.9587H20.458C20.458 53.8809 20.0497 52.8036 19.2233 51.9815L17.8127 53.3993ZM26.8747 54.9587C26.8747 52.2472 25.8371 49.5186 23.7611 47.4461L22.348 48.8615C24.0322 50.5427 24.8747 52.755 24.8747 54.9587H26.8747ZM18.458 54.9584C18.4579 55.5441 18.2251 56.1057 17.811 56.5197L19.225 57.9342C20.0142 57.1451 20.4578 56.0749 20.458 54.9589L18.458 54.9584ZM23.7615 62.4708C25.7543 60.4786 26.8741 57.7766 26.8747 54.9589L24.8747 54.9584C24.8742 57.2458 23.9652 59.4392 22.3475 61.0563L23.7615 62.4708ZM63.3747 48.542C63.3747 49.1277 63.142 49.6894 62.7279 50.1035L64.1421 51.5177C64.9313 50.7285 65.3747 49.6581 65.3747 48.542H63.3747ZM62.7279 50.1035C62.3137 50.5177 61.752 50.7503 61.1663 50.7503V52.7503C62.2825 52.7503 63.3529 52.307 64.1421 51.5177L62.7279 50.1035ZM60.1663 51.7503V58.167H62.1663V51.7503H60.1663ZM61.1663 59.167C63.9843 59.167 66.6868 58.0476 68.6793 56.055L67.2651 54.6408C65.6476 56.2583 63.4538 57.167 61.1663 57.167V59.167ZM68.6793 56.055C70.6719 54.0624 71.7913 51.3599 71.7913 48.542H69.7913C69.7913 50.8295 68.8826 53.0233 67.2651 54.6408L68.6793 56.055ZM54.7497 27.0837C57.0372 27.0837 59.231 27.9924 60.8485 29.6099L62.2627 28.1957C60.2701 26.2031 57.5676 25.0837 54.7497 25.0837V27.0837ZM60.8485 29.6099C62.466 31.2274 63.3747 33.4212 63.3747 35.7087H65.3747C65.3747 32.8907 64.2553 30.1882 62.2627 28.1957L60.8485 29.6099ZM71.7913 35.7087C71.7913 33.4707 71.3505 31.2547 70.4941 29.1871L68.6464 29.9525C69.4023 31.7774 69.7913 33.7334 69.7913 35.7087H71.7913ZM70.4941 29.1871C69.6377 27.1195 68.3824 25.2408 66.7999 23.6584L65.3857 25.0726C66.7825 26.4693 67.8904 28.1275 68.6464 29.9525L70.4941 29.1871ZM66.7999 23.6584C65.2175 22.0759 63.3388 20.8206 61.2712 19.9642L60.5059 21.812C62.3308 22.5679 63.989 23.6758 65.3857 25.0726L66.7999 23.6584ZM61.2712 19.9642C59.2036 19.1078 56.9876 18.667 54.7497 18.667V20.667C56.725 20.667 58.6809 21.0561 60.5059 21.812L61.2712 19.9642ZM-0.791992 48.542C-0.791992 51.3599 0.327424 54.0624 2.32 56.055L3.73421 54.6408C2.11671 53.0233 1.20801 50.8295 1.20801 48.542H-0.791992ZM2.32 56.055C4.31257 58.0476 7.01508 59.167 9.83301 59.167V57.167C7.54551 57.167 5.35171 56.2583 3.73421 54.6408L2.32 56.055ZM10.833 58.167V51.7503H8.83301V58.167H10.833ZM9.83301 50.7503C9.24732 50.7503 8.68562 50.5177 8.27148 50.1035L6.85727 51.5177C7.64648 52.307 8.71689 52.7503 9.83301 52.7503V50.7503ZM8.27148 50.1035C7.85734 49.6894 7.62467 49.1277 7.62467 48.542H5.62467C5.62467 49.6581 6.06805 50.7285 6.85727 51.5177L8.27148 50.1035Z" fill="#3A6D8C" mask="url(#path-1-inside-1_174_1662)"/>
<path d="M3.41602 19.667H13.041M3.41602 32.5003H19.4577" stroke="#3A6D8C" stroke-width="2" stroke-linecap="round" stroke-linejoin="round"/>
</svg>
